{
.appVersion = "983";
copyright = "Copyright © 2017 Adobe Systems Incorporated (http://www.adobe.com/).";
customParameters = (
{
name = description;
value = "Dr. Ken Lunde (project architect, glyph set definition & overall production); Masataka HATTORI 服部正貴 (production & ideograph elements)";
},
{
name = license;
value = "This Font Software is licensed under the SIL Open Font License, Version 1.1. This Font Software is distributed on an \"AS IS\" BASIS, WITHOUT WARRANTIES OR CONDITIONS OF ANY KIND, either express or implied. See the SIL Open Font License for the specific language, permissions and limitations governing your use of this Font Software.";
},
{
name = licenseURL;
value = "http://scripts.sil.org/OFL";
},
{
name = vendorID;
value = GOOG;
},
{
name = panose;
value = (
2,
2,
3,
0,
0,
0,
0,
0,
0,
0
);
},
{
name = unicodeRanges;
value = (
0,
1,
7,
28,
29,
36,
42,
43,
44,
45,
48,
49,
50,
51,
52,
54,
55,
56,
57,
59,
61,
65,
66,
68
);
},
{
name = codePageRanges;
value = (
1252,
1250,
1251,
1258,
932,
936,
949,
1361
);
},
{
name = ROS;
value = "Adobe-Identity-0";
},
{
name = glyphOrder;
value = (
.notdef,
space
);
}
);
date = "2017-03-21 12:23:19 +0000";
designer = "Ryoko NISHIZUKA 西塚涼子 (kana & ideographs); Frank Grießhammer (Latin, Greek & Cyrillic); Wenlong ZHANG 张文龙 (bopomofo); Sandoll Communications 산돌커뮤니케이션, Soohyun PARK 박수현, Yejin WE 위예진 & Donghoon HAN 한동훈 (hangul elements, letters & syllables)";
designerURL = "http://www.adobe.com/type/";
familyName = "Yaku Han MP s";
fontMaster = (
{
alignmentZones = (
"{1900, 0}",
"{1100, 0}",
"{1100, 0}",
"{1100, 0}",
"{1100, 0}",
"{1100, 0}",
"{1100, 0}",
"{1100, 0}",
"{1100, 0}",
"{1100, 0}",
"{1100, 0}",
"{1100, 0}",
"{802, 0}",
"{792, 0}",
"{747, 17}",
"{747, 17}",
"{747, 17}",
"{747, 17}",
"{747, 0}",
"{726, 17}",
"{702, 14}",
"{524, 17}",
"{524, 17}",
"{524, 0}",
"{511, 14}",
"{0, 0}",
"{0, -14}",
"{0, -15}",
"{0, -18}",
"{0, -18}",
"{0, -18}",
"{0, -18}",
"{-172, 0}",
"{-177, 0}",
"{-202, 0}",
"{-250, 0}",

glyphs = (
{
glyphname = .notdef;
lastChange = "2017-04-16 03:16:31 +0000";
layers = (
{
layerId = "1D099554-13C2-460C-BACA-316648239F70";
paths = (
{
closed = 1;
nodes = (
"100 -120 LINE",
"900 -120 LINE",
"900 880 LINE",
"100 880 LINE"
);
},
{
closed = 1;
nodes = (
"500 421 LINE",
"182 830 LINE",
"818 830 LINE"
);
},
{
closed = 1;
nodes = (
"532 380 LINE",
"850 789 LINE",
"850 -29 LINE"
);
},
{
closed = 1;
nodes = (
"182 -70 LINE",
"500 339 LINE",
"818 -70 LINE"
);
},
{
closed = 1;
nodes = (
"150 789 LINE",
"468 380 LINE",
"150 -29 LINE"
);
}
);
vertWidth = 1000;
width = 1000;
}
);
note = .notdef;
},
{
glyphname = ellipsis;
lastChange = "2017-04-16 03:16:31 +0000";
layers = (
{
layerId = "1D099554-13C2-460C-BACA-316648239F70";
paths = (
{
closed = 1;
nodes = (
"197 325 OFFCURVE",
"222 350 OFFCURVE",
"222 380 CURVE SMOOTH",
"222 410 OFFCURVE",
"197 435 OFFCURVE",
"167 435 CURVE SMOOTH",
"137 435 OFFCURVE",
"112 410 OFFCURVE",
"112 380 CURVE SMOOTH",
"112 350 OFFCURVE",
"137 325 OFFCURVE",
"167 325 CURVE SMOOTH"
);
},
{
closed = 1;
nodes = (
"530 325 OFFCURVE",
"555 350 OFFCURVE",
"555 380 CURVE SMOOTH",
"555 410 OFFCURVE",
"530 435 OFFCURVE",
"500 435 CURVE SMOOTH",
"470 435 OFFCURVE",
"445 410 OFFCURVE",
"445 380 CURVE SMOOTH",
"445 350 OFFCURVE",
"470 325 OFFCURVE",
"500 325 CURVE SMOOTH"
);
},
{
closed = 1;
nodes = (
"863 325 OFFCURVE",
"888 350 OFFCURVE",
"888 380 CURVE SMOOTH",
"888 410 OFFCURVE",
"863 435 OFFCURVE",
"833 435 CURVE SMOOTH",
"803 435 OFFCURVE",
"778 410 OFFCURVE",
"778 380 CURVE SMOOTH",
"778 350 OFFCURVE",
"803 325 OFFCURVE",
"833 325 CURVE SMOOTH"
);
}
);
vertWidth = 1000;
width = 1000;
}
);
note = ellipsis;
unicode = 2026;
},
{
glyphname = blacklenticularbracketleft;
lastChange = "2017-04-16 03:18:26 +0000";
layers = (
{
layerId = "1D099554-13C2-460C-BACA-316648239F70";
paths = (
{
closed = 1;
nodes = (
"543 -64 LINE",
"385 7 OFFCURVE",
"280 160 OFFCURVE",
"280 380 CURVE SMOOTH",
"280 600 OFFCURVE",
"385 753 OFFCURVE",
"543 824 CURVE",
"543 841 LINE",
"200 841 LINE",
"200 -81 LINE",
"543 -81 LINE"
);
}
);
vertWidth = 1000;
width = 573;
}
);
note = blacklenticularbracketleft;
unicode = 3010;
},
{
glyphname = blacklenticularbracketright;
lastChange = "2017-04-16 03:18:38 +0000";
layers = (
{
layerId = "1D099554-13C2-460C-BACA-316648239F70";
paths = (
{
closed = 1;
nodes = (
"30 -81 LINE",
"373 -81 LINE",
"373 841 LINE",
"30 841 LINE",
"30 824 LINE",
"188 753 OFFCURVE",
"293 600 OFFCURVE",
"293 380 CURVE SMOOTH",
"293 160 OFFCURVE",
"188 7 OFFCURVE",
"30 -64 CURVE"
);
}
);
vertWidth = 1000;
width = 573;
}
);
note = blacklenticularbracketright;
unicode = 3011;
},
{
glyphname = braceleft.full;
lastChange = "2017-04-16 03:18:26 +0000";
layers = (
{
layerId = "1D099554-13C2-460C-BACA-316648239F70";
paths = (
{
closed = 1;
nodes = (
"589 829 LINE",
"589 867 LINE",
"534 867 LINE SMOOTH",
"393 867 OFFCURVE",
"330 816 OFFCURVE",
"330 726 CURVE SMOOTH",
"330 642 OFFCURVE",
"355 556 OFFCURVE",
"355 501 CURVE SMOOTH",
"355 446 OFFCURVE",
"318 413 OFFCURVE",
"200 398 CURVE",
"200 363 LINE",
"318 348 OFFCURVE",
"355 314 OFFCURVE",
"355 260 CURVE SMOOTH",
"355 204 OFFCURVE",
"330 119 OFFCURVE",
"330 34 CURVE SMOOTH",
"330 -56 OFFCURVE",
"393 -106 OFFCURVE",
"534 -106 CURVE SMOOTH",
"589 -106 LINE",
"589 -69 LINE",
"533 -66 LINE SMOOTH",
"424 -60 OFFCURVE",
"391 -29 OFFCURVE",
"391 41 CURVE SMOOTH",
"391 121 OFFCURVE",
"401 189 OFFCURVE",
"401 250 CURVE SMOOTH",
"401 309 OFFCURVE",
"369 361 OFFCURVE",
"282 380 CURVE",
"369 399 OFFCURVE",
"401 451 OFFCURVE",
"401 510 CURVE SMOOTH",
"401 571 OFFCURVE",
"391 639 OFFCURVE",
"391 721 CURVE SMOOTH",
"391 789 OFFCURVE",
"424 822 OFFCURVE",
"533 827 CURVE SMOOTH"
);
}
);
vertWidth = 1000;
width = 619;
}
);
note = braceleft.full;
unicode = FF5B;
},
{
glyphname = braceright.full;
lastChange = "2017-04-16 03:18:38 +0000";
layers = (
{
layerId = "1D099554-13C2-460C-BACA-316648239F70";
paths = (
{
closed = 1;
nodes = (
"419 398 LINE",
"301 413 OFFCURVE",
"264 447 OFFCURVE",
"264 501 CURVE SMOOTH",
"264 557 OFFCURVE",
"289 642 OFFCURVE",
"289 727 CURVE SMOOTH",
"289 817 OFFCURVE",
"226 867 OFFCURVE",
"85 867 CURVE SMOOTH",
"30 867 LINE",
"30 830 LINE",
"86 827 LINE SMOOTH",
"195 821 OFFCURVE",
"228 790 OFFCURVE",
"228 720 CURVE SMOOTH",
"228 640 OFFCURVE",
"218 572 OFFCURVE",
"218 511 CURVE SMOOTH",
"218 452 OFFCURVE",
"250 400 OFFCURVE",
"337 381 CURVE",
"250 362 OFFCURVE",
"218 310 OFFCURVE",
"218 251 CURVE SMOOTH",
"218 190 OFFCURVE",
"228 122 OFFCURVE",
"228 40 CURVE SMOOTH",
"228 -28 OFFCURVE",
"195 -61 OFFCURVE",
"86 -66 CURVE SMOOTH",
"30 -68 LINE",
"30 -106 LINE",
"85 -106 LINE SMOOTH",
"226 -106 OFFCURVE",
"289 -55 OFFCURVE",
"289 35 CURVE SMOOTH",
"289 119 OFFCURVE",
"264 205 OFFCURVE",
"264 260 CURVE SMOOTH",
"264 315 OFFCURVE",
"301 348 OFFCURVE",
"419 363 CURVE"
);
}
);
vertWidth = 1000;
width = 619;
}
);
note = braceright.full;
unicode = FF5D;
},
{
glyphname = cornerbracketleft;
lastChange = "2017-04-16 03:18:26 +0000";
layers = (
{
layerId = "1D099554-13C2-460C-BACA-316648239F70";
paths = (
{
closed = 1;
nodes = (
"200 189 LINE",
"236 189 LINE",
"236 807 LINE",
"502 807 LINE",
"502 841 LINE",
"200 841 LINE"
);
}
);
vertWidth = 1000;
width = 532;
}
);
note = cornerbracketleft;
unicode = 300C;
},
{
glyphname = cornerbracketright;
lastChange = "2017-04-16 03:18:38 +0000";
layers = (
{
layerId = "1D099554-13C2-460C-BACA-316648239F70";
paths = (
{
closed = 1;
nodes = (
"332 571 LINE",
"296 571 LINE",
"296 -47 LINE",
"30 -47 LINE",
"30 -81 LINE",
"332 -81 LINE"
);
}
);
vertWidth = 1000;
width = 532;
}
);
note = cornerbracketright;
unicode = 300D;
},
{
glyphname = dblanglebracketleft;
lastChange = "2017-04-16 03:18:26 +0000";
layers = (
{
layerId = "1D099554-13C2-460C-BACA-316648239F70";
paths = (
{
closed = 1;
nodes = (
"240 380 LINE",
"496 826 LINE",
"467 844 LINE",
"200 380 LINE",
"467 -84 LINE",
"496 -66 LINE"
);
},
{
closed = 1;
nodes = (
"383 380 LINE",
"638 826 LINE",
"609 844 LINE",
"343 380 LINE",
"609 -84 LINE",
"638 -66 LINE"
);
}
);
vertWidth = 1000;
width = 668;
}
);
note = dblanglebracketleft;
unicode = 300A;
},
{
glyphname = dblanglebracketright;
lastChange = "2017-04-16 03:18:38 +0000";
layers = (
{
layerId = "1D099554-13C2-460C-BACA-316648239F70";
paths = (
{
closed = 1;
nodes = (
"201 -84 LINE",
"468 380 LINE",
"201 844 LINE",
"172 826 LINE",
"428 380 LINE",
"172 -66 LINE"
);
},
{
closed = 1;
nodes = (
"59 -84 LINE",
"325 380 LINE",
"59 844 LINE",
"30 826 LINE",
"285 380 LINE",
"30 -66 LINE"
);
}
);
vertWidth = 1000;
width = 668;
}
);
note = dblanglebracketright;
unicode = 300B;
},
{
glyphname = tortoiseshellbracketleft;
lastChange = "2017-04-16 03:18:26 +0000";
layers = (
{
layerId = "1D099554-13C2-460C-BACA-316648239F70";
paths = (
{
closed = 1;
nodes = (
"433 -87 LINE",
"450 -55 LINE",
"237 44 LINE",
"237 716 LINE",
"450 815 LINE",
"433 847 LINE",
"200 738 LINE",
"200 22 LINE"
);
}
);
vertWidth = 1000;
width = 480;
}
);
note = tortoiseshellbracketleft;
unicode = 3014;
},
{
glyphname = tortoiseshellbracketright;
lastChange = "2017-04-16 03:18:38 +0000";
layers = (
{
layerId = "1D099554-13C2-460C-BACA-316648239F70";
paths = (
{
closed = 1;
nodes = (
"47 -87 LINE",
"280 22 LINE",
"280 738 LINE",
"47 847 LINE",
"30 815 LINE",
"243 716 LINE",
"243 44 LINE",
"30 -55 LINE"
);
}
);
vertWidth = 1000;
width = 480;
}
);
note = tortoiseshellbracketright;
unicode = 3015;
},
{
glyphname = whitecornerbracketleft;
lastChange = "2017-04-16 03:18:26 +0000";
layers = (
{
layerId = "1D099554-13C2-460C-BACA-316648239F70";
paths = (
{
closed = 1;
nodes = (
"559 696 LINE",
"559 842 LINE",
"200 842 LINE",
"200 180 LINE",
"350 180 LINE",
"350 696 LINE"
);
},
{
closed = 1;
nodes = (
"531 814 LINE",
"531 724 LINE",
"322 724 LINE",
"322 208 LINE",
"228 208 LINE",
"228 814 LINE"
);
}
);
vertWidth = 1000;
width = 589;
}
);
note = whitecornerbracketleft;
unicode = 300E;
},
{
glyphname = whitecornerbracketright;
lastChange = "2017-04-16 03:18:38 +0000";
layers = (
{
layerId = "1D099554-13C2-460C-BACA-316648239F70";
paths = (
{
closed = 1;
nodes = (
"30 65 LINE",
"30 -81 LINE",
"389 -81 LINE",
"389 580 LINE",
"239 580 LINE",
"239 65 LINE"
);
},
{
closed = 1;
nodes = (
"58 -53 LINE",
"58 37 LINE",
"267 37 LINE",
"267 552 LINE",
"361 552 LINE",
"361 -53 LINE"
);
}
);
vertWidth = 1000;
width = 589;
}
);
note = whitecornerbracketright;
unicode = 300F;
},
{
glyphname = whitelenticularbracketleft;
lastChange = "2017-04-16 03:18:26 +0000";
layers = (
{
layerId = "1D099554-13C2-460C-BACA-316648239F70";
paths = (
{
closed = 1;
nodes = (
"551 -60 LINE",
"402 4 OFFCURVE",
"291 160 OFFCURVE",
"291 380 CURVE SMOOTH",
"291 600 OFFCURVE",
"402 756 OFFCURVE",
"551 820 CURVE",
"551 841 LINE",
"200 841 LINE",
"200 -81 LINE",
"551 -81 LINE"
);
},
{
closed = 1;
nodes = (
"228 -53 LINE",
"228 813 LINE",
"480 813 LINE",
"395 761 OFFCURVE",
"263 629 OFFCURVE",
"263 380 CURVE SMOOTH",
"263 131 OFFCURVE",
"395 -1 OFFCURVE",
"480 -53 CURVE"
);
}
);
vertWidth = 1000;
width = 581;
}
);
note = whitelenticularbracketleft;
unicode = 3016;
},
{
glyphname = whitelenticularbracketright;
lastChange = "2017-04-16 03:18:38 +0000";
layers = (
{
layerId = "1D099554-13C2-460C-BACA-316648239F70";
paths = (
{
closed = 1;
nodes = (
"381 -81 LINE",
"381 841 LINE",
"30 841 LINE",
"30 820 LINE",
"180 756 OFFCURVE",
"290 600 OFFCURVE",
"290 380 CURVE SMOOTH",
"290 160 OFFCURVE",
"180 4 OFFCURVE",
"30 -60 CURVE",
"30 -81 LINE"
);
},
{
closed = 1;
nodes = (
"318 629 OFFCURVE",
"186 761 OFFCURVE",
"101 813 CURVE",
"353 813 LINE",
"353 -53 LINE",
"101 -53 LINE",
"186 -1 OFFCURVE",
"318 131 OFFCURVE",
"318 380 CURVE SMOOTH"
);
}
);
vertWidth = 1000;
width = 581;
}
);
note = whitelenticularbracketright;
unicode = 3017;
},
{
glyphname = bracketleft.full;
lastChange = "2017-04-16 03:18:26 +0000";
layers = (
{
layerId = "1D099554-13C2-460C-BACA-316648239F70";
paths = (
{
closed = 1;
nodes = (
"200 -81 LINE",
"450 -81 LINE",
"450 -47 LINE",
"237 -47 LINE",
"237 807 LINE",
"450 807 LINE",
"450 841 LINE",
"200 841 LINE"
);
}
);
vertWidth = 1000;
width = 480;
}
);
note = bracketleft.full;
unicode = FF3B;
},
{
glyphname = bracketright.full;
lastChange = "2017-04-16 03:18:38 +0000";
layers = (
{
layerId = "1D099554-13C2-460C-BACA-316648239F70";
paths = (
{
closed = 1;
nodes = (
"280 -81 LINE",
"280 841 LINE",
"30 841 LINE",
"30 807 LINE",
"243 807 LINE",
"243 -47 LINE",
"30 -47 LINE",
"30 -81 LINE"
);
}
);
vertWidth = 1000;
width = 480;
}
);
note = bracketright.full;
unicode = FF3D;
},
{
glyphname = parenleft.full;
lastChange = "2017-04-16 03:18:26 +0000";
layers = (
{
layerId = "1D099554-13C2-460C-BACA-316648239F70";
paths = (
{
closed = 1;
nodes = (
"200 140 OFFCURVE",
"333 -1 OFFCURVE",
"465 -87 CURVE",
"484 -66 LINE",
"366 26 OFFCURVE",
"259 172 OFFCURVE",
"259 380 CURVE SMOOTH",
"259 588 OFFCURVE",
"366 734 OFFCURVE",
"484 826 CURVE",
"465 847 LINE",
"333 761 OFFCURVE",
"200 620 OFFCURVE",
"200 380 CURVE SMOOTH"
);
}
);
vertWidth = 1000;
width = 514;
}
);
note = parenleft.full;
unicode = FF08;
},
{
glyphname = parenright.full;
lastChange = "2017-04-16 03:18:38 +0000";
layers = (
{
layerId = "1D099554-13C2-460C-BACA-316648239F70";
paths = (
{
closed = 1;
nodes = (
"30 826 LINE",
"148 734 OFFCURVE",
"255 588 OFFCURVE",
"255 380 CURVE SMOOTH",
"255 172 OFFCURVE",
"148 26 OFFCURVE",
"30 -66 CURVE",
"49 -87 LINE",
"181 -1 OFFCURVE",
"314 140 OFFCURVE",
"314 380 CURVE SMOOTH",
"314 620 OFFCURVE",
"181 761 OFFCURVE",
"49 847 CURVE"
);
}
